<?xml version="1.0" standalone="no"?>
<!DOCTYPE svg PUBLIC "-//W3C//DTD SVG 20010904//EN"
 "http://www.w3.org/TR/2001/REC-SVG-20010904/DTD/svg10.dtd">
<svg version="1.0" xmlns="http://www.w3.org/2000/svg"
 width="615.000000pt" height="615.000000pt" viewBox="0 0 615.000000 615.000000"
 preserveAspectRatio="xMidYMid meet">

<g transform="translate(0.000000,615.000000) scale(0.100000,-0.100000)"
fill="#000000" stroke="none">
<path d="M0 3075 l0 -3075 3075 0 3075 0 0 3075 0 3075 -3075 0 -3075 0 0
-3075z m2901 2496 c35 -11 91 -25 124 -32 106 -22 180 -67 297 -180 58 -57
127 -134 152 -171 59 -87 129 -234 154 -323 11 -38 36 -126 56 -195 55 -194
62 -248 47 -376 -7 -60 -16 -194 -21 -299 -8 -191 -21 -276 -60 -376 -11 -30
-20 -63 -20 -74 0 -11 -11 -38 -25 -60 -13 -22 -25 -55 -25 -72 0 -37 -49
-189 -85 -269 -13 -29 -35 -90 -49 -136 -43 -144 -56 -179 -110 -288 -20 -41
-50 -115 -66 -165 -46 -136 -81 -203 -110 -210 -13 -4 -162 -8 -331 -11 -273
-3 -309 -2 -324 12 -17 17 -50 76 -75 134 -8 19 -32 64 -52 100 -20 36 -44 90
-52 120 -8 30 -31 100 -50 155 -20 55 -36 109 -36 119 0 11 -4 33 -10 50 -76
235 -113 355 -115 376 -1 14 -10 57 -19 95 -33 136 -38 161 -52 265 -33 243
-54 452 -54 549 0 117 15 306 32 396 6 33 12 67 13 75 0 8 7 25 13 37 7 12 12
31 12 42 0 40 69 191 132 291 87 139 136 201 236 303 72 73 94 90 137 103 134
38 242 43 336 15z m1757 -878 c23 -13 56 -39 72 -56 16 -18 44 -49 63 -69 45
-49 62 -112 60 -223 -2 -149 -29 -224 -128 -355 -58 -77 -162 -190 -175 -190
-4 0 -29 -18 -56 -40 -105 -87 -216 -125 -439 -150 -108 -13 -226 -4 -246 17
-4 5 -1 36 6 71 7 35 16 129 19 210 3 81 11 170 17 197 18 78 61 205 69 205 5
0 19 19 33 43 46 78 181 220 260 274 86 58 147 81 245 93 90 10 149 3 200 -27z
m-2314 -2474 c32 0 61 -6 81 -18 45 -26 78 -32 105 -18 28 14 65 15 94 2 13
-6 21 -5 24 3 5 17 22 15 22 -2 0 -8 -8 -17 -17 -19 -10 -3 6 -5 35 -6 33 -1
51 -5 47 -11 -3 -5 -1 -10 4 -10 14 0 14 20 1 40 -6 10 -10 11 -10 3 0 -7 -12
-13 -26 -13 -16 0 -24 5 -21 13 2 6 10 11 17 9 7 -1 19 3 27 9 14 12 320 15
332 4 3 -3 -1 -16 -8 -28 -13 -21 -13 -22 6 -4 11 9 26 17 34 17 12 0 11 2 -1
11 -13 9 -13 10 0 6 20 -5 26 -37 6 -37 -8 0 -17 -4 -20 -9 -7 -10 27 -9 35 1
3 4 20 3 39 -2 46 -13 50 -5 6 10 -65 21 -39 40 52 39 31 0 66 -4 77 -8 11 -5
27 -5 36 0 9 4 31 4 50 -1 19 -5 98 -12 177 -15 81 -4 153 -12 166 -19 15 -7
55 -11 107 -9 69 2 86 -1 97 -14 7 -10 12 -12 12 -5 0 7 4 12 8 12 9 0 8 -74
-1 -130 -4 -19 -16 -41 -27 -49 -11 -7 -20 -20 -20 -27 0 -21 14 -17 25 8 31
68 52 -7 36 -128 -6 -44 -10 -94 -9 -112 0 -18 -2 -35 -6 -39 -4 -4 -35 -9
-69 -11 -150 -7 -197 -11 -282 -22 -157 -19 -232 -20 -221 -1 2 3 -17 6 -44 6
-29 0 -46 -4 -43 -10 4 -13 -19 -16 -122 -17 -217 -3 -347 14 -330 42 4 7 -16
7 -35 0 -3 -1 -31 -2 -63 -1 -32 1 -66 -3 -75 -8 -12 -6 -34 -6 -59 0 -23 5
-107 10 -188 12 -81 1 -149 7 -153 12 -4 6 -54 11 -111 12 -73 1 -108 6 -120
16 -26 23 -81 36 -163 39 -43 2 -79 7 -81 13 -3 10 1 162 5 219 3 31 25 47 38
26 5 -8 9 -7 13 5 4 9 3 13 -3 10 -6 -3 -10 2 -10 12 0 15 -2 16 -10 3 -7 -11
-10 -3 -10 28 0 26 4 41 10 37 6 -3 10 -1 10 4 0 6 -4 11 -10 11 -5 0 -10 18
-10 40 0 38 2 40 28 39 15 0 60 3 101 7 66 6 74 5 68 -9 -3 -9 -2 -19 3 -22 6
-4 10 1 10 10 0 11 5 15 15 11 9 -3 15 0 15 9 0 9 19 15 63 19 107 10 151 12
171 8 11 -3 42 -4 70 -3z m989 -596 c-7 -2 -21 -2 -30 0 -10 3 -4 5 12 5 17 0
24 -2 18 -5z m-1148 -54 c144 -13 187 -16 395 -24 96 -4 210 -13 253 -21 115
-21 496 -26 637 -9 63 7 129 16 145 19 76 13 193 18 199 8 7 -12 -25 -122 -36
-122 -4 0 -8 -15 -8 -34 0 -19 -4 -38 -10 -41 -5 -3 -10 -17 -10 -31 0 -13 -4
-24 -10 -24 -5 0 -11 -12 -11 -27 -1 -21 -2 -23 -6 -8 -9 39 -22 38 -21 -1 0
-21 -1 -43 -3 -49 -2 -5 1 -11 6 -12 6 -1 9 4 7 12 -1 7 3 17 9 21 8 5 9 -5 5
-32 -3 -22 -11 -77 -16 -124 -6 -47 -17 -97 -25 -113 -7 -15 -17 -53 -21 -85
-3 -31 -11 -66 -17 -77 -6 -11 -16 -49 -23 -85 -28 -144 -36 -176 -51 -198 -9
-15 -12 -34 -8 -49 5 -20 3 -24 -9 -20 -10 4 -16 1 -16 -9 0 -8 5 -12 10 -9 6
3 10 2 10 -3 0 -16 -13 -22 -27 -11 -14 13 -16 9 -7 -15 3 -9 11 -13 16 -10 7
4 7 -2 2 -17 -4 -13 -8 -34 -9 -47 0 -21 -4 -23 -35 -18 -32 5 -33 5 -10 -6
14 -6 28 -10 33 -10 4 1 7 -2 7 -8 0 -13 51 -12 -543 -11 -280 1 -515 5 -523
9 -8 4 -45 5 -82 0 -37 -4 -97 -5 -134 -1 l-66 5 -16 52 c-30 97 -46 183 -56
307 -15 166 -16 174 -25 189 -4 7 -2 16 5 20 9 6 8 12 -5 27 -11 13 -19 43
-21 79 -4 60 -6 77 -17 104 -21 57 -33 178 -18 193 6 6 11 23 11 37 0 14 9 36
20 48 19 20 20 24 6 49 -10 19 -15 23 -16 11 0 -9 5 -20 11 -24 8 -5 6 -10 -5
-16 -9 -5 -19 -27 -22 -49 -4 -22 -11 -42 -16 -45 -4 -3 -8 -2 -7 3 3 9 -10
98 -17 124 -2 8 3 24 11 35 13 16 16 17 26 4 9 -12 10 -12 7 -1 -6 22 -24 24
-43 5 -16 -16 -17 -16 -14 8 2 14 -2 32 -10 41 -7 9 -15 34 -18 57 l-6 40 64
0 c35 0 114 -5 174 -11z"/>
<path d="M2800 5300 c0 -22 4 -40 8 -40 11 0 44 -115 52 -182 3 -32 5 -94 3
-138 -3 -75 -1 -81 21 -95 14 -9 43 -16 65 -17 36 0 46 5 84 45 79 84 197 248
197 274 0 14 -16 27 -51 44 l-51 23 -22 -26 c-11 -15 -36 -47 -54 -72 -18 -25
-37 -46 -41 -46 -5 0 -12 19 -16 43 -9 61 -45 157 -73 195 -22 28 -30 32 -73
32 l-49 0 0 -40z"/>
<path d="M2240 4705 c-14 -17 -9 -26 100 -147 93 -102 134 -162 126 -183 -3
-9 -27 -25 -53 -37 -27 -11 -66 -28 -88 -38 -22 -10 -66 -25 -97 -35 -75 -23
-95 -44 -79 -83 8 -20 23 -32 48 -40 42 -13 99 3 236 67 127 59 157 71 171 71
29 0 38 27 20 62 -29 58 -97 147 -174 230 -41 44 -88 96 -104 114 -21 26 -36
34 -61 34 -18 0 -38 -7 -45 -15z"/>
<path d="M3348 4460 c-10 -11 -17 -47 -20 -106 -6 -100 -33 -173 -87 -234 -37
-42 -38 -51 -8 -86 22 -25 30 -27 98 -27 70 0 115 15 164 53 6 4 27 17 48 29
20 12 53 30 72 41 20 11 42 20 50 20 22 0 18 43 -6 74 -32 41 -67 36 -184 -27
-16 -9 -30 -15 -32 -13 -2 1 1 16 7 32 5 16 14 67 19 114 8 77 7 87 -11 112
-21 31 -19 30 -64 33 -20 2 -37 -3 -46 -15z"/>
<path d="M2898 3993 c-9 -2 -43 -42 -74 -89 -31 -46 -61 -87 -66 -90 -5 -3
-13 -17 -18 -30 -14 -35 -37 -40 -60 -13 -10 13 -19 29 -20 34 0 6 -10 22 -23
37 -12 16 -38 48 -57 73 -28 36 -41 45 -65 45 -40 0 -55 -16 -55 -57 0 -25 8
-39 40 -64 22 -18 40 -38 40 -46 0 -7 4 -13 9 -13 5 0 17 -21 27 -46 20 -54
91 -130 129 -140 15 -4 37 -2 50 4 29 13 144 158 175 219 12 23 25 43 30 43 8
0 40 72 40 90 0 6 -9 19 -20 30 -19 19 -44 23 -82 13z"/>
<path d="M3222 3619 c-16 -31 -130 -189 -142 -199 -11 -9 -86 -124 -93 -142
-3 -10 -1 -31 4 -47 13 -37 63 -57 163 -66 38 -3 74 -9 80 -12 26 -16 47 -7
71 28 l25 39 -26 17 c-15 9 -53 19 -85 21 -33 3 -61 8 -64 12 -3 4 4 19 15 33
11 14 20 30 20 36 0 6 4 11 8 11 4 0 15 12 24 28 9 15 28 41 42 57 39 44 46
53 46 61 0 3 9 17 20 31 27 34 25 69 -5 98 -36 37 -81 34 -103 -6z"/>
<path d="M2260 3420 c-27 -51 78 -127 229 -166 57 -15 91 -37 91 -60 0 -14
-80 -210 -105 -257 -8 -16 -15 -34 -15 -41 0 -19 45 -65 73 -75 30 -12 67 11
67 40 0 10 4 27 9 37 5 9 17 37 27 62 9 25 30 73 46 108 15 35 28 67 28 71 0
4 9 16 21 27 16 14 19 25 14 53 -14 73 -76 122 -170 135 -67 9 -108 22 -182
57 -74 35 -118 38 -133 9z"/>
<path d="M2818 2822 c-20 -21 -44 -52 -54 -69 -10 -18 -21 -33 -25 -33 -4 0
-10 -12 -13 -27 -4 -16 -24 -47 -45 -70 -48 -52 -57 -77 -40 -112 19 -35 28
-41 70 -41 44 0 61 18 118 121 61 112 60 112 117 27 68 -101 154 -142 162 -76
6 50 -170 286 -227 306 -26 9 -32 7 -63 -26z"/>
<path d="M4372 4574 c-19 -13 -23 -24 -21 -67 1 -29 -4 -83 -11 -122 -17 -95
-6 -133 46 -163 46 -27 113 -24 170 8 19 11 41 20 49 20 8 0 15 3 15 8 0 4 23
23 50 42 65 46 67 84 5 116 -20 10 -32 11 -39 4 -5 -5 -16 -10 -23 -10 -7 0
-36 -18 -65 -40 -66 -50 -82 -51 -74 -7 3 17 8 62 12 98 6 65 6 66 -27 97 -38
36 -55 39 -87 16z"/>
<path d="M4048 4108 c-18 -13 -48 -113 -48 -158 0 -14 -9 -53 -20 -88 -30 -96
-13 -132 62 -132 44 0 54 9 61 50 3 19 11 66 17 105 6 38 13 71 15 73 2 2 41
-7 87 -22 108 -33 142 -40 173 -32 34 9 32 37 -5 79 -24 28 -40 36 -81 41 -50
7 -117 34 -149 61 -8 7 -27 15 -42 19 -14 3 -32 8 -40 11 -7 3 -21 0 -30 -7z"/>
<path d="M3192 2191 c-10 -6 -10 -10 2 -20 11 -10 19 -9 35 1 12 7 21 16 21
20 0 11 -42 10 -58 -1z"/>
<path d="M1916 2179 c2 -4 -1 -9 -8 -11 -7 -3 -8 -7 -3 -10 6 -3 18 2 27 11
16 16 16 17 -2 17 -10 0 -17 -3 -14 -7z"/>
<path d="M2550 2182 c0 -5 -10 -13 -22 -19 -20 -9 -19 -10 12 -10 19 0 30 2
23 4 -7 3 -9 11 -6 19 3 8 2 14 -1 14 -3 0 -6 -4 -6 -8z"/>
<path d="M3265 2180 c-3 -5 1 -10 10 -10 9 0 14 -4 11 -9 -4 -5 3 -7 14 -4 23
6 23 6 -7 22 -14 7 -24 8 -28 1z"/>
<path d="M1833 2166 c0 -8 13 -13 31 -13 17 -1 24 2 16 4 -8 3 -22 9 -31 14
-10 5 -16 4 -16 -5z"/>
<path d="M2585 2170 c3 -5 13 -10 21 -10 8 0 14 5 14 10 0 6 -9 10 -21 10 -11
0 -17 -4 -14 -10z"/>
<path d="M2460 2161 c0 -7 -5 -9 -12 -5 -7 5 -8 3 -3 -5 5 -9 10 -10 18 -2 6
6 8 14 4 18 -4 3 -7 1 -7 -6z"/>
<path d="M2015 2150 c-3 -5 -3 -25 0 -44 4 -19 2 -42 -4 -53 -9 -15 -10 -11
-6 17 5 34 5 34 -6 8 -6 -16 -15 -28 -20 -28 -5 0 -9 -4 -9 -10 0 -5 7 -7 15
-4 9 4 15 1 15 -7 0 -7 7 -3 16 10 12 17 15 35 10 69 -4 32 -3 42 4 32 6 -9
10 -10 10 -3 0 16 -17 26 -25 13z"/>
<path d="M3331 2144 c0 -11 3 -14 6 -6 3 7 2 16 -1 19 -3 4 -6 -2 -5 -13z"/>
<path d="M1810 2135 c0 -9 6 -12 15 -9 8 4 15 7 15 9 0 2 -7 5 -15 9 -9 3 -15
0 -15 -9z"/>
<path d="M1950 2135 c0 -8 4 -15 9 -15 5 0 11 7 15 15 3 9 0 15 -9 15 -8 0
-15 -7 -15 -15z"/>
<path d="M2465 2104 c-3 -19 -1 -42 4 -52 8 -13 9 -9 5 18 -4 28 -3 32 6 18 6
-10 15 -18 20 -18 17 0 11 35 -9 52 -18 15 -19 15 -26 -18z"/>
<path d="M2722 2091 c1 -22 5 -38 8 -36 7 4 1 75 -6 75 -3 0 -4 -18 -2 -39z"/>
<path d="M3289 2100 c-10 -39 -4 -85 11 -85 7 0 19 10 27 22 13 19 12 22 -6
28 -12 3 -21 17 -23 33 l-3 27 -6 -25z m27 -67 c-10 -10 -19 5 -10 18 6 11 8
11 12 0 2 -7 1 -15 -2 -18z"/>
<path d="M3666 2111 c-6 -9 2 -82 10 -90 2 -3 3 19 2 47 -2 55 -3 58 -12 43z"/>
<path d="M3332 2090 c0 -14 2 -19 5 -12 2 6 2 18 0 25 -3 6 -5 1 -5 -13z"/>
<path d="M3931 2098 c0 -9 -4 -25 -7 -35 -5 -17 -5 -17 6 0 6 10 9 25 7 35 -4
15 -5 15 -6 0z"/>
<path d="M1810 2070 c0 -4 6 -13 14 -20 12 -9 15 -8 13 8 -1 17 -27 28 -27 12z"/>
<path d="M1930 2060 c-8 -5 -11 -12 -7 -16 4 -4 15 0 24 9 18 18 8 23 -17 7z"/>
<path d="M2540 2061 c8 -5 12 -12 10 -14 -3 -2 -16 -11 -30 -21 l-25 -17 28 7
c17 4 27 2 27 -5 0 -6 -6 -11 -12 -11 -9 0 -8 -4 2 -10 8 -5 26 -9 40 -9 l25
1 -25 7 c-21 5 -25 12 -25 40 0 22 -5 36 -15 38 -13 4 -13 3 0 -6z"/>
<path d="M2643 2053 c-3 -8 -1 -19 5 -25 8 -8 9 -5 5 11 -6 22 12 30 20 9 3
-10 9 -9 21 3 16 14 15 16 -14 16 -18 0 -34 -6 -37 -14z"/>
<path d="M3044 2058 c-3 -5 -3 -12 0 -15 3 -4 6 0 6 8 0 12 2 11 10 -1 9 -13
11 -13 20 0 9 13 11 13 19 0 6 -8 13 -11 17 -7 4 4 4 10 1 14 -11 10 -67 11
-73 1z"/>
<path d="M2490 2050 c0 -5 5 -10 10 -10 6 0 10 5 10 10 0 6 -4 10 -10 10 -5 0
-10 -4 -10 -10z"/>
<path d="M1930 2008 c0 -19 2 -20 10 -8 13 19 13 30 0 30 -5 0 -10 -10 -10
-22z"/>
<path d="M3080 2019 c0 -5 5 -7 10 -4 6 3 10 8 10 11 0 2 -4 4 -10 4 -5 0 -10
-5 -10 -11z"/>
<path d="M1970 2009 c0 -5 5 -7 10 -4 6 3 10 8 10 11 0 2 -4 4 -10 4 -5 0 -10
-5 -10 -11z"/>
<path d="M3103 2001 c-10 -16 -9 -20 3 -25 25 -10 84 -7 84 4 0 6 -16 8 -41 4
-39 -7 -41 -6 -34 15 8 26 4 27 -12 2z"/>
<path d="M2640 1989 c0 -5 5 -7 10 -4 6 3 10 8 10 11 0 2 -4 4 -10 4 -5 0 -10
-5 -10 -11z"/>
<path d="M3236 1974 c-17 -12 -17 -14 -4 -14 9 0 20 5 23 11 11 17 2 18 -19 3z"/>
<path d="M3676 1977 c3 -10 9 -15 12 -12 3 3 0 11 -7 18 -10 9 -11 8 -5 -6z"/>
<path d="M3708 1983 c7 -3 16 -2 19 1 4 3 -2 6 -13 5 -11 0 -14 -3 -6 -6z"/>
<path d="M3835 1974 c9 -9 19 -13 23 -10 3 4 0 11 -8 16 -24 15 -33 11 -15 -6z"/>
<path d="M3878 1983 c7 -3 16 -2 19 1 4 3 -2 6 -13 5 -11 0 -14 -3 -6 -6z"/>
<path d="M3720 1963 c0 -5 9 -14 20 -21 11 -7 20 -8 20 -2 0 5 -9 14 -20 20
-11 6 -20 7 -20 3z"/>
<path d="M2095 1951 l-20 -8 20 -5 c16 -5 14 -6 -7 -7 -28 -1 -50 -22 -30 -29
7 -2 12 -11 12 -20 0 -15 2 -15 10 -2 6 9 5 17 -3 22 -18 11 -4 18 52 25 31 3
47 9 40 14 -8 5 0 9 22 12 23 2 16 4 -21 5 -30 0 -64 -3 -75 -7z m48 -8 c-7
-2 -19 -2 -25 0 -7 3 -2 5 12 5 14 0 19 -2 13 -5z"/>
<path d="M3168 1953 c7 -3 16 -2 19 1 4 3 -2 6 -13 5 -11 0 -14 -3 -6 -6z"/>
<path d="M3845 1940 c-3 -5 -2 -10 4 -10 5 0 13 5 16 10 3 6 2 10 -4 10 -5 0
-13 -4 -16 -10z"/>
<path d="M2247 1927 c-3 -7 3 -13 14 -13 13 0 15 3 7 13 -6 7 -12 13 -13 13
-2 0 -5 -6 -8 -13z"/>
<path d="M2702 1929 c-22 -8 -22 -29 -1 -29 6 0 7 4 4 10 -6 9 14 16 70 23 23
3 21 4 -10 5 -22 0 -50 -3 -63 -9z"/>
<path d="M2800 1920 c-8 -5 -10 -10 -4 -10 16 0 26 -43 12 -51 -15 -9 -1 -29
20 -28 11 0 12 3 5 6 -18 7 -16 23 2 23 8 0 15 -4 15 -10 0 -14 27 -12 33 3 2
6 2 -14 0 -45 -3 -41 -1 -58 8 -58 7 0 9 8 6 21 -3 12 -2 31 3 44 6 16 4 30
-8 46 -23 34 -42 52 -48 46 -3 -3 5 -14 17 -26 17 -15 19 -21 8 -21 -32 0 -71
53 -46 64 7 2 8 5 2 5 -5 0 -17 -4 -25 -9z"/>
<path d="M2208 1913 c7 -3 16 -2 19 1 4 3 -2 6 -13 5 -11 0 -14 -3 -6 -6z"/>
<path d="M3825 1910 c-28 -7 -28 -8 -5 -9 14 0 32 4 40 9 17 11 8 11 -35 0z"/>
<path d="M2644 1886 c-27 -27 -33 -46 -23 -71 l8 -20 1 20 c2 11 2 24 1 29 -1
5 8 19 20 32 28 30 21 39 -7 10z"/>
<path d="M2215 1890 c-3 -5 -2 -10 4 -10 5 0 18 -3 28 -7 16 -6 16 -5 4 10
-15 19 -27 22 -36 7z"/>
<path d="M3288 1878 c-17 -17 -20 -18 -15 -4 5 12 3 16 -5 13 -7 -2 -12 -11
-12 -19 1 -9 -5 -15 -14 -14 -8 0 -17 -5 -19 -12 -3 -7 1 -10 11 -6 25 10 19
-13 -11 -35 -30 -24 -28 -33 4 -20 12 4 25 20 29 34 3 14 12 25 19 25 7 0 15
7 19 15 8 22 26 18 26 -5 0 -25 16 -26 31 -1 10 15 18 17 48 10 23 -5 37 -4
40 2 2 6 10 5 20 -3 9 -7 4 -1 -11 15 -29 28 -48 35 -48 17 0 -5 9 -10 21 -10
11 0 18 -4 14 -9 -3 -6 -20 -4 -40 5 -21 8 -35 10 -35 4 0 -5 -9 -10 -21 -10
-15 0 -19 5 -15 15 8 22 -11 18 -36 -7z"/>
<path d="M2024 1876 c-4 -9 -4 -20 0 -23 3 -4 6 -1 6 5 0 7 5 12 11 12 5 0 7
-5 3 -12 -12 -20 -4 -91 13 -110 8 -9 12 -21 9 -27 -4 -5 -2 -13 4 -16 6 -4 9
-2 8 3 -3 11 -1 12 50 12 20 0 32 -4 25 -8 -6 -4 13 -7 42 -7 29 0 51 3 48 8
-2 4 -22 7 -43 7 -21 0 -42 5 -45 10 -3 6 -24 10 -46 10 -24 0 -38 4 -34 10 3
6 -1 10 -9 10 -9 0 -16 9 -16 20 0 11 6 20 13 20 7 0 13 9 13 21 0 19 -1 19
-14 2 -13 -16 -14 -15 -9 14 7 36 -18 69 -29 39z"/>
<path d="M2290 1878 c0 -10 -4 -18 -10 -18 -5 0 -10 -7 -10 -15 0 -19 14 -19
30 -1 8 11 9 20 1 33 -10 17 -10 17 -11 1z"/>
<path d="M2660 1865 c-7 -9 -10 -18 -7 -21 6 -7 47 18 47 28 0 14 -27 9 -40
-7z"/>
<path d="M2696 1845 c-19 -15 -19 -15 2 -15 13 0 22 6 22 15 0 18 0 18 -24 0z"/>
<path d="M3398 1833 c6 -2 18 -2 25 0 6 3 1 5 -13 5 -14 0 -19 -2 -12 -5z"/>
<path d="M3446 1790 c1 -26 7 -56 12 -67 10 -17 11 -17 17 0 4 9 14 17 23 17
13 0 12 3 -3 14 -11 8 -23 12 -27 10 -5 -3 -8 11 -8 30 0 19 -4 37 -8 40 -5 3
-7 -17 -6 -44z"/>
<path d="M2010 1808 c0 -19 2 -20 10 -8 13 19 13 30 0 30 -5 0 -10 -10 -10
-22z"/>
<path d="M3480 1808 c0 -9 5 -20 10 -23 13 -8 13 5 0 25 -8 13 -10 13 -10 -2z"/>
<path d="M2279 1808 c-8 -25 -8 -58 0 -53 6 3 10 17 9 30 -2 21 -6 31 -9 23z"/>
<path d="M2602 1785 c0 -16 2 -22 5 -12 2 9 2 23 0 30 -3 6 -5 -1 -5 -18z"/>
<path d="M2911 1784 c0 -11 3 -14 6 -6 3 7 2 16 -1 19 -3 4 -6 -2 -5 -13z"/>
<path d="M2626 1774 c-3 -9 -2 -23 4 -32 7 -14 9 -10 10 16 0 35 -5 41 -14 16z"/>
<path d="M2033 1734 c0 -16 13 -19 21 -5 3 5 0 11 -7 14 -8 3 -14 -1 -14 -9z"/>
<path d="M2175 1740 c-3 -5 -1 -10 4 -10 6 0 11 5 11 10 0 6 -2 10 -4 10 -3 0
-8 -4 -11 -10z"/>
<path d="M2225 1740 c3 -5 10 -10 16 -10 5 0 9 5 9 10 0 6 -7 10 -16 10 -8 0
-12 -4 -9 -10z"/>
<path d="M3250 1735 c-8 -9 -8 -15 -2 -15 12 0 26 19 19 26 -2 2 -10 -2 -17
-11z"/>
<path d="M2610 1734 c0 -6 7 -19 15 -30 8 -10 14 -14 14 -9 0 6 -6 19 -14 29
-8 11 -15 15 -15 10z"/>
<path d="M2887 1723 c3 -7 6 -13 8 -13 2 0 5 6 8 13 3 8 -1 14 -8 14 -7 0 -11
-6 -8 -14z"/>
<path d="M3200 1714 c0 -5 7 -18 15 -28 12 -16 15 -17 15 -4 0 8 -7 21 -15 28
-8 7 -15 9 -15 4z"/>
<path d="M2098 1703 c7 -3 16 -2 19 1 4 3 -2 6 -13 5 -11 0 -14 -3 -6 -6z"/>
<path d="M2260 1699 c0 -5 5 -7 10 -4 6 3 10 8 10 11 0 2 -4 4 -10 4 -5 0 -10
-5 -10 -11z"/>
<path d="M3427 1684 c-14 -18 -24 -23 -40 -18 -15 4 -19 3 -12 -4 6 -5 26 -12
45 -15 19 -3 29 -3 23 0 -7 2 -13 9 -13 14 0 6 7 6 18 0 15 -8 18 -5 19 12 0
12 -1 16 -4 10 -8 -21 -25 -14 -18 7 8 26 4 25 -18 -6z"/>
<path d="M3253 1680 c2 -9 17 -16 38 -16 31 -2 31 -1 4 3 -16 3 -34 10 -38 16
-6 8 -7 7 -4 -3z"/>
<path d="M3633 1473 c9 -2 25 -2 35 0 9 3 1 5 -18 5 -19 0 -27 -2 -17 -5z"/>
<path d="M3705 1458 c11 -6 23 -16 27 -22 4 -6 10 -8 13 -4 9 9 -24 38 -43 38
-14 -1 -14 -3 3 -12z"/>
<path d="M3549 1443 c-13 -17 -13 -17 6 -3 11 8 22 16 24 17 2 2 0 3 -6 3 -6
0 -17 -8 -24 -17z"/>
<path d="M3625 1450 c-8 -13 25 -13 45 0 12 8 9 10 -12 10 -15 0 -30 -4 -33
-10z"/>
<path d="M2437 1432 c22 -23 49 -33 68 -26 23 9 7 24 -26 24 -16 0 -29 5 -29
10 0 6 -7 10 -15 10 -13 0 -13 -3 2 -18z"/>
<path d="M2495 1440 c11 -5 27 -9 35 -9 9 0 8 4 -5 9 -11 5 -27 9 -35 9 -9 0
-8 -4 5 -9z"/>
<path d="M3010 1440 c0 -5 5 -10 10 -10 6 0 10 5 10 10 0 6 -4 10 -10 10 -5 0
-10 -4 -10 -10z"/>
<path d="M3685 1440 c-3 -5 1 -10 10 -10 9 0 13 5 10 10 -3 6 -8 10 -10 10 -2
0 -7 -4 -10 -10z"/>
<path d="M2385 1430 c-3 -6 -13 -22 -21 -38 -11 -22 -14 -24 -14 -7 0 16 -2
17 -10 5 -5 -9 -5 -19 1 -26 14 -17 44 13 51 50 6 27 3 33 -7 16z"/>
<path d="M2014 1375 c-1 -45 -1 -45 12 -19 10 18 11 31 4 45 -6 10 -12 19 -13
19 -1 0 -3 -21 -3 -45z"/>
<path d="M3141 1404 c0 -11 3 -14 6 -6 3 7 2 16 -1 19 -3 4 -6 -2 -5 -13z"/>
<path d="M2572 1396 c7 -8 15 -12 17 -11 5 6 -10 25 -20 25 -5 0 -4 -6 3 -14z"/>
<path d="M2931 1396 c-8 -10 -7 -17 5 -27 15 -12 16 -11 11 11 -4 14 -4 19 -1
13 7 -15 24 -17 24 -4 0 15 -28 20 -39 7z"/>
<path d="M3170 1394 c0 -6 7 -19 15 -30 8 -10 14 -14 14 -9 0 6 -6 19 -14 29
-8 11 -15 15 -15 10z"/>
<path d="M2557 1366 c-4 -10 -1 -13 8 -9 8 3 12 9 9 14 -7 12 -11 11 -17 -5z"/>
<path d="M3140 1370 c0 -5 7 -10 16 -10 8 0 12 5 9 10 -3 6 -10 10 -16 10 -5
0 -9 -4 -9 -10z"/>
<path d="M3496 1363 c-6 -14 -5 -15 5 -6 7 7 10 15 7 18 -3 3 -9 -2 -12 -12z"/>
<path d="M2914 1356 c4 -10 1 -25 -5 -32 -7 -9 -9 -28 -4 -51 5 -27 9 -33 16
-22 12 19 11 91 -2 109 -9 12 -10 12 -5 -4z"/>
<path d="M2408 1353 c6 -2 18 -2 25 0 6 3 1 5 -13 5 -14 0 -19 -2 -12 -5z"/>
<path d="M3705 1351 c-4 -7 -3 -16 2 -20 6 -3 12 -11 14 -18 2 -7 9 -1 16 12
6 14 7 25 2 25 -5 0 -9 -6 -10 -12 0 -7 -4 -4 -8 6 -6 15 -10 16 -16 7z"/>
<path d="M2566 1319 c-9 -44 -8 -89 2 -89 5 0 7 13 4 30 -2 16 1 43 6 60 6 16
7 30 3 30 -5 0 -11 -14 -15 -31z"/>
<path d="M2601 1330 c-1 -15 -6 -31 -12 -37 -8 -8 -7 -17 5 -35 l17 -23 -7 29
c-5 21 -4 27 5 22 12 -8 13 7 1 44 l-8 25 -1 -25z"/>
<path d="M2941 1334 c0 -11 3 -14 6 -6 3 7 2 16 -1 19 -3 4 -6 -2 -5 -13z"/>
<path d="M3511 1334 c0 -11 3 -14 6 -6 3 7 2 16 -1 19 -3 4 -6 -2 -5 -13z"/>
<path d="M2072 1320 c0 -14 2 -19 5 -12 2 6 2 18 0 25 -3 6 -5 1 -5 -13z"/>
<path d="M3492 1320 c0 -14 2 -19 5 -12 2 6 2 18 0 25 -3 6 -5 1 -5 -13z"/>
<path d="M2311 1298 c-1 -19 4 -28 14 -28 8 0 15 5 15 11 0 5 -4 8 -9 4 -5 -3
-12 5 -14 17 -4 20 -4 19 -6 -4z"/>
<path d="M3002 1295 c0 -16 2 -22 5 -12 2 9 2 23 0 30 -3 6 -5 -1 -5 -18z"/>
<path d="M2052 1290 c0 -14 2 -19 5 -12 2 6 2 18 0 25 -3 6 -5 1 -5 -13z"/>
<path d="M3201 1288 c0 -9 -7 -18 -13 -21 -7 -2 -10 -8 -5 -12 11 -13 29 11
24 31 -4 16 -5 16 -6 2z"/>
<path d="M3500 1276 c0 -8 4 -17 9 -20 5 -4 7 3 4 14 -6 23 -13 26 -13 6z"/>
<path d="M2375 1260 c3 -5 8 -10 11 -10 2 0 4 5 4 10 0 6 -5 10 -11 10 -5 0
-7 -4 -4 -10z"/>
<path d="M3120 1256 c0 -14 37 -19 45 -7 2 5 -6 11 -20 13 -15 3 -25 1 -25 -6z"/>
<path d="M3567 1251 c-3 -14 -1 -18 9 -14 8 3 14 11 14 19 0 21 -17 17 -23 -5z"/>
<path d="M2310 1255 c0 -5 5 -17 10 -25 5 -8 10 -10 10 -5 0 6 -5 17 -10 25
-5 8 -10 11 -10 5z"/>
<path d="M2340 1250 c0 -5 5 -10 10 -10 6 0 10 5 10 10 0 6 -4 10 -10 10 -5 0
-10 -4 -10 -10z"/>
<path d="M3535 1250 c3 -5 8 -10 11 -10 2 0 4 5 4 10 0 6 -5 10 -11 10 -5 0
-7 -4 -4 -10z"/>
<path d="M2946 1235 c-9 -26 -7 -32 5 -12 6 10 9 21 6 23 -2 3 -7 -2 -11 -11z"/>
<path d="M2030 1229 c0 -5 5 -7 10 -4 6 3 10 8 10 11 0 2 -4 4 -10 4 -5 0 -10
-5 -10 -11z"/>
<path d="M3164 1226 c-11 -6 -19 -17 -17 -23 3 -9 11 -6 26 7 24 23 20 31 -9
16z"/>
<path d="M2360 1219 c0 -5 -4 -7 -10 -4 -5 3 -10 1 -10 -5 0 -7 6 -10 14 -7 8
3 20 -2 28 -10 11 -15 10 -16 -7 -10 -20 7 -20 7 -1 -8 11 -8 40 -15 65 -16
38 -1 42 -2 21 -9 -15 -5 -18 -8 -8 -9 25 -1 49 10 42 20 -3 5 -27 9 -54 9
-39 0 -48 3 -44 15 3 8 -1 21 -9 30 -18 18 -27 19 -27 4z"/>
<path d="M3121 1214 c0 -11 3 -14 6 -6 3 7 2 16 -1 19 -3 4 -6 -2 -5 -13z"/>
<path d="M3578 1210 c-17 -19 -16 -20 20 -30 43 -12 99 -13 88 -2 -4 4 -18 7
-29 8 -77 3 -78 3 -67 24 14 25 9 25 -12 0z"/>
<path d="M2550 1190 c-13 -8 -13 -10 2 -10 9 0 20 5 23 10 8 13 -5 13 -25 0z"/>
<path d="M2950 1194 c0 -13 49 -48 57 -41 2 3 -6 11 -19 18 -12 6 -26 17 -30
23 -6 8 -8 8 -8 0z"/>
<path d="M2503 1183 c9 -2 15 -9 12 -14 -4 -5 1 -9 11 -9 13 0 14 3 4 15 -7 8
-20 14 -29 14 -13 -1 -13 -2 2 -6z"/>
<path d="M2990 1186 c0 -2 7 -6 15 -10 8 -3 15 -1 15 4 0 6 -7 10 -15 10 -8 0
-15 -2 -15 -4z"/>
<path d="M3073 1183 c9 -2 25 -2 35 0 9 3 1 5 -18 5 -19 0 -27 -2 -17 -5z"/>
<path d="M3101 1168 c-19 -5 -43 -7 -53 -5 -10 3 -21 1 -24 -4 -8 -14 67 -10
101 6 35 16 24 17 -24 3z"/>
<path d="M2075 1029 c-11 -16 -1 -19 13 -3 7 8 8 14 3 14 -5 0 -13 -5 -16 -11z"/>
<path d="M2118 1033 c7 -3 16 -2 19 1 4 3 -2 6 -13 5 -11 0 -14 -3 -6 -6z"/>
<path d="M2166 1013 c-4 -9 -4 -18 -1 -21 3 -3 5 0 5 8 0 10 3 10 15 0 19 -16
20 -3 1 15 -12 12 -15 12 -20 -2z"/>
<path d="M2636 1011 c-8 -12 14 -28 44 -34 22 -4 21 -4 -7 -6 -17 0 -38 5 -45
12 -8 9 -21 11 -33 6 -18 -7 -17 -8 5 -8 20 -1 22 -3 10 -11 -16 -11 -15 -11
48 -14 24 -1 45 1 48 6 3 4 12 4 22 1 15 -6 15 -4 4 9 -7 9 -31 19 -53 23 -21
4 -37 11 -33 16 3 5 3 9 0 9 -3 0 -7 -4 -10 -9z"/>
<path d="M2680 1010 c8 -5 22 -10 30 -10 13 0 13 1 0 10 -8 5 -22 10 -30 10
-13 0 -13 -1 0 -10z"/>
<path d="M3328 1008 c6 -6 18 -8 28 -6 14 3 12 5 -9 10 -19 3 -25 2 -19 -4z"/>
<path d="M3275 1000 c4 -6 11 -8 16 -5 14 9 11 15 -7 15 -8 0 -12 -5 -9 -10z"/>
<path d="M2080 978 c0 -12 3 -18 7 -14 11 10 12 36 2 36 -5 0 -9 -10 -9 -22z"/>
<path d="M2547 982 c-18 -20 -23 -52 -8 -52 5 0 12 -6 14 -12 2 -7 3 -1 1 13
-3 23 0 26 19 23 21 -4 20 -4 -2 6 -19 8 -21 13 -11 25 18 21 6 19 -13 -3z"/>
<path d="M2743 984 c16 -17 16 -19 -4 -30 -21 -11 -21 -11 4 -16 18 -4 24 -1
20 9 -3 7 0 13 7 13 16 0 3 18 -23 31 -21 11 -21 11 -4 -7z"/>
<path d="M3259 977 c15 -9 19 -16 12 -18 -7 -3 9 -5 36 -5 26 -1 37 1 23 3
-14 3 -27 9 -30 13 -3 5 -19 11 -35 15 -30 6 -30 6 -6 -8z"/>
<path d="M3320 980 c8 -5 23 -10 33 -10 10 0 16 -4 13 -9 -3 -4 7 -6 22 -4 19
3 23 2 13 -5 -9 -7 -10 -12 -2 -16 13 -8 26 18 17 33 -3 5 -15 7 -26 4 -11 -3
-20 0 -20 6 0 6 -15 11 -32 11 -25 0 -29 -3 -18 -10z"/>
<path d="M2165 970 c-4 -6 -4 -14 -1 -17 3 -4 6 -1 6 7 0 10 3 10 17 -1 14
-12 16 -12 12 0 -7 19 -25 25 -34 11z"/>
<path d="M2210 971 c0 -6 4 -13 10 -16 6 -3 7 1 4 9 -7 18 -14 21 -14 7z"/>
<path d="M3175 971 c-3 -6 1 -25 9 -43 12 -27 15 -29 15 -11 1 12 -4 25 -11
29 -7 5 -5 11 7 21 16 11 17 13 3 13 -9 0 -19 -4 -23 -9z"/>
<path d="M3228 963 c7 -3 16 -2 19 1 4 3 -2 6 -13 5 -11 0 -14 -3 -6 -6z"/>
<path d="M2504 913 c-3 -16 -7 -34 -10 -41 -2 -7 1 -10 6 -7 6 3 10 0 10 -7 1
-13 29 30 30 45 0 12 -18 8 -23 -5 -2 -7 -3 -1 -1 15 2 15 1 27 -1 27 -3 0 -7
-12 -11 -27z"/>
<path d="M3150 913 c0 -15 2 -16 10 -3 8 13 10 12 10 -2 0 -10 -4 -18 -8 -18
-4 0 -8 -19 -8 -42 -1 -24 1 -34 3 -23 3 11 8 25 12 30 11 17 7 68 -6 72 -8 3
-13 -3 -13 -14z"/>
<path d="M2736 886 c4 -10 1 -16 -7 -16 -8 0 -4 -8 10 -19 17 -13 22 -24 17
-37 -6 -17 -5 -17 15 2 19 20 20 24 8 50 -15 31 -54 48 -43 20z"/>
<path d="M2120 868 c0 -15 3 -19 8 -11 14 22 47 8 53 -23 5 -28 5 -28 13 -6 5
14 13 21 22 18 7 -3 16 -1 19 4 6 10 5 11 -33 15 -13 1 -28 7 -35 14 -20 20
-47 13 -47 -11z"/>
<path d="M2536 874 c-4 -10 -2 -20 4 -24 6 -4 8 -18 5 -32 -4 -14 -3 -28 2
-31 9 -6 11 88 2 98 -4 3 -9 -2 -13 -11z"/>
<path d="M2625 880 c3 -5 15 -10 26 -10 11 0 17 5 14 10 -3 6 -15 10 -26 10
-11 0 -17 -4 -14 -10z"/>
<path d="M2107 813 c2 -35 13 -73 22 -73 3 0 17 9 30 19 16 12 20 20 12 25 -6
4 -14 0 -17 -8 -3 -9 -10 -16 -15 -16 -6 0 -5 8 1 19 5 11 10 28 9 38 -1 13
-3 11 -8 -6 -10 -36 -28 -37 -23 -1 2 16 0 30 -4 30 -5 0 -8 -12 -7 -27z"/>
<path d="M2206 813 c-6 -14 -5 -15 5 -6 7 7 10 15 7 18 -3 3 -9 -2 -12 -12z"/>
<path d="M2522 805 c0 -16 2 -22 5 -12 2 9 2 23 0 30 -3 6 -5 -1 -5 -18z"/>
<path d="M3182 808 c2 -12 10 -23 18 -25 11 -4 12 -2 2 5 -7 5 -10 16 -6 25 3
10 1 17 -6 17 -6 0 -10 -10 -8 -22z"/>
<path d="M3394 799 c-4 -7 -2 -15 4 -17 7 -2 9 -8 6 -14 -4 -6 -9 -7 -13 -1
-8 13 -109 25 -115 14 -3 -4 -2 -21 3 -36 6 -23 9 -26 14 -12 3 9 2 19 -3 22
-6 4 -10 11 -10 17 0 7 5 6 15 -2 8 -7 25 -10 40 -6 14 4 33 2 43 -3 22 -12
42 -1 38 21 -3 24 -13 31 -22 17z"/>
<path d="M2610 781 c0 -5 -8 -12 -17 -15 -10 -3 -5 -4 11 -2 16 2 40 -1 53 -7
16 -7 29 -7 45 2 22 11 22 11 2 8 -12 -3 -32 2 -45 9 -28 16 -49 18 -49 5z"/>
<path d="M2721 771 l24 -19 -27 -7 c-26 -7 -60 -35 -42 -35 15 1 90 50 77 50
-7 0 -13 7 -13 15 0 9 -9 15 -21 15 -21 0 -21 0 2 -19z"/>
<path d="M2765 780 c3 -5 8 -10 11 -10 2 0 4 5 4 10 0 6 -5 10 -11 10 -5 0 -7
-4 -4 -10z"/>
<path d="M3192 758 c16 -16 36 -28 46 -28 11 0 6 6 -13 16 -16 8 -37 21 -46
27 -8 7 -2 0 13 -15z"/>
<path d="M3227 776 c-3 -8 2 -16 14 -19 16 -4 18 -3 9 8 -8 10 -7 14 2 18 9 4
8 6 -3 6 -9 1 -19 -5 -22 -13z"/>
<path d="M2634 730 c0 -13 4 -16 10 -10 7 7 7 13 0 20 -6 6 -10 3 -10 -10z"/>
<path d="M3343 742 c-13 -2 -23 -8 -23 -13 0 -8 47 -3 58 6 8 6 -15 11 -35 7z"/>
<path d="M2588 733 c7 -3 16 -2 19 1 4 3 -2 6 -13 5 -11 0 -14 -3 -6 -6z"/>
<path d="M2352 581 c-8 -5 7 -6 36 -3 49 4 122 -19 122 -39 0 -5 -17 0 -37 11
-39 21 -79 25 -101 12 -7 -5 10 -9 40 -9 37 -1 55 -6 64 -18 7 -10 19 -15 27
-12 8 3 20 0 27 -6 7 -7 5 0 -4 15 -30 47 -132 76 -174 49z"/>
<path d="M2893 582 c-6 -4 20 -7 58 -7 37 0 61 3 51 7 -23 9 -94 9 -109 0z"/>
<path d="M3422 581 c-17 -10 17 -21 66 -21 24 0 35 -6 42 -22 8 -21 9 -22 10
-3 2 17 3 16 11 -5 l8 -25 -2 25 c-1 14 -8 24 -15 23 -6 -2 -12 2 -12 7 0 6
-17 10 -38 10 -21 0 -42 4 -48 10 -5 5 -15 5 -22 1z"/>
<path d="M3488 583 c7 -3 16 -2 19 1 4 3 -2 6 -13 5 -11 0 -14 -3 -6 -6z"/>
<path d="M3530 580 c8 -5 20 -10 25 -10 6 0 3 5 -5 10 -8 5 -19 10 -25 10 -5
0 -3 -5 5 -10z"/>
<path d="M2865 525 c0 -24 3 -46 6 -49 4 -4 6 13 5 38 -1 58 -11 68 -11 11z"/>
<path d="M2916 561 c-3 -4 12 -8 34 -8 22 0 37 4 34 8 -3 5 -18 9 -34 9 -16 0
-31 -4 -34 -9z"/>
<path d="M2830 541 c-5 -11 -7 -27 -4 -36 4 -10 1 -21 -7 -26 -10 -6 -9 -8 6
-7 17 2 20 9 20 45 0 24 -1 43 -2 43 -1 0 -7 -9 -13 -19z"/>
<path d="M3043 532 c0 -22 4 -29 10 -23 7 7 7 18 0 33 -9 20 -10 20 -10 -10z"/>
<path d="M3396 544 c-18 -18 -21 -34 -6 -34 6 0 15 10 20 23 5 12 9 16 9 10 1
-18 21 -16 21 2 0 20 -24 19 -44 -1z"/>
<path d="M2296 533 c-2 -10 -8 -29 -11 -42 -5 -16 -4 -21 4 -17 6 4 11 2 11
-4 0 -6 5 -8 11 -4 8 5 7 9 -1 14 -8 5 -11 19 -7 39 7 33 2 43 -7 14z"/>
<path d="M3070 524 c0 -6 7 -19 16 -30 14 -18 14 -18 3 6 -14 31 -19 36 -19
24z"/>
<path d="M2392 495 c0 -16 2 -22 5 -12 2 9 2 23 0 30 -3 6 -5 -1 -5 -18z"/>
<path d="M3349 513 c-1 -16 -1 -139 0 -154 1 -13 21 -2 21 12 0 6 -5 7 -10 4
-7 -4 -9 2 -6 17 12 60 15 104 6 118 -7 10 -10 11 -11 3z"/>
<path d="M2496 493 c-13 -13 -5 -25 8 -14 11 9 15 9 18 0 3 -9 9 -9 24 -1 10
6 17 12 14 12 -30 6 -59 7 -64 3z"/>
<path d="M3052 480 c-7 -11 -8 -20 -3 -20 9 0 24 30 18 36 -1 2 -8 -6 -15 -16z"/>
<path d="M3400 485 c0 -8 7 -15 15 -15 9 0 12 6 9 15 -4 8 -10 15 -15 15 -5 0
-9 -7 -9 -15z"/>
<path d="M3532 480 c-17 -27 -15 -35 4 -16 8 9 14 21 12 26 -2 6 -9 1 -16 -10z"/>
<path d="M2791 469 c0 -9 6 -22 14 -29 10 -9 15 -9 15 -1 0 6 -4 11 -9 11 -5
0 -12 8 -14 18 -4 14 -5 14 -6 1z"/>
<path d="M2256 455 c-9 -26 -7 -32 5 -12 6 10 9 21 6 23 -2 3 -7 -2 -11 -11z"/>
<path d="M3076 454 c-3 -8 -10 -12 -16 -9 -5 3 -10 0 -10 -8 0 -8 -3 -29 -6
-46 -4 -20 -3 -31 5 -31 7 0 11 6 10 13 -3 26 1 38 12 31 7 -4 8 -9 1 -13 -6
-4 -5 -10 2 -17 9 -9 12 1 12 42 0 58 -1 62 -10 38z"/>
<path d="M2282 430 c0 -19 2 -27 5 -17 2 9 2 25 0 35 -3 9 -5 1 -5 -18z"/>
<path d="M2871 423 c0 -18 -6 -33 -12 -33 -5 0 -7 -5 -3 -11 11 -18 26 17 21
49 -4 25 -4 24 -6 -5z"/>
<path d="M3101 434 c0 -11 3 -14 6 -6 3 7 2 16 -1 19 -3 4 -6 -2 -5 -13z"/>
<path d="M2299 399 c-12 -12 -14 -20 -6 -28 6 -6 7 -14 3 -18 -4 -4 -11 -1
-16 7 -6 8 -10 10 -10 4 0 -6 7 -17 15 -24 12 -10 15 -10 15 0 0 10 3 10 15 0
25 -21 30 -2 6 21 -17 16 -20 24 -11 29 7 4 11 12 9 17 -2 5 -11 1 -20 -8z"/>
<path d="M2261 394 c0 -11 3 -14 6 -6 3 7 2 16 -1 19 -3 4 -6 -2 -5 -13z"/>
<path d="M2533 374 c-4 -10 -14 -24 -22 -31 -11 -8 -12 -12 -4 -13 15 0 48 48
40 57 -4 3 -10 -3 -14 -13z"/>
<path d="M3420 369 c7 -11 14 -19 16 -16 7 7 -7 37 -17 37 -6 0 -5 -9 1 -21z"/>
<path d="M2820 361 c0 -11 3 -22 8 -24 4 -3 7 6 7 19 0 13 -3 24 -7 24 -5 0
-8 -9 -8 -19z"/>
<path d="M2480 354 c0 -8 5 -12 10 -9 6 4 8 11 5 16 -9 14 -15 11 -15 -7z"/>
<path d="M2850 350 c0 -5 7 -7 15 -4 8 4 15 8 15 10 0 2 -7 4 -15 4 -8 0 -15
-4 -15 -10z"/>
<path d="M3405 340 c3 -5 11 -10 16 -10 6 0 7 5 4 10 -3 6 -11 10 -16 10 -6 0
-7 -4 -4 -10z"/>
<path d="M3375 330 c3 -5 8 -10 11 -10 2 0 4 5 4 10 0 6 -5 10 -11 10 -5 0 -7
-4 -4 -10z"/>
<path d="M2476 303 c-6 -14 -5 -15 5 -6 7 7 10 15 7 18 -3 3 -9 -2 -12 -12z"/>
<path d="M2918 303 c6 -2 18 -2 25 0 6 3 1 5 -13 5 -14 0 -19 -2 -12 -5z"/>
</g>
</svg>
